<svg width="1440" height="1024" viewBox="0 0 1440 1024" fill="none" xmlns="http://www.w3.org/2000/svg">
<g clip-path="url(#clip0_2981_93917)">
<rect width="1440" height="1024" fill="#EEEEF2"/>
<path d="M1280.44 415.283C1270.46 399.644 1270.53 379.86 1264.15 363.693C1245.39 315.805 1194.25 277.683 1131.14 257.955C979.251 210.651 944.206 305.259 784.514 324.737C624.822 344.215 566.401 263.52 387.273 294.128C208.145 324.737 250.957 405.432 254.822 472.381C258.687 539.33 63.987 555.859 28.9419 636.721C-6.10331 717.583 114.641 750.807 99.0322 809.242C83.4232 867.676 -25.577 901.067 5.56591 954.076C36.7088 1007.08 63.987 1018.08 286.002 976.336C508.018 934.598 792.319 915.119 998.913 945.728C1205.51 976.336 1353.34 1040.34 1407.9 1020.86C1461.82 1001.57 1433.34 902.737 1425.2 872.073C1407.3 804.678 1333.04 747.607 1334.32 679.323C1335.11 634.801 1395.07 614.46 1399.49 569.104C1403.51 527.95 1371.76 490.858 1336.49 460.361C1320.62 446.642 1295.86 434.343 1283.55 419.039C1282.43 418.009 1281.49 416.674 1280.44 415.283Z" fill="#FAFAFA"/>
<path opacity="0.9" d="M1280.44 415.283C1270.46 399.644 1270.53 379.86 1264.15 363.693C1245.39 315.805 1194.25 277.683 1131.14 257.955C979.251 210.651 944.206 305.259 784.514 324.737C624.822 344.215 566.401 263.52 387.273 294.128C208.145 324.737 250.957 405.432 254.822 472.381C258.687 539.33 63.987 555.859 28.9419 636.721C-6.10331 717.583 114.641 750.807 99.0322 809.242C83.4232 867.676 -25.577 901.067 5.56591 954.076C36.7088 1007.08 63.987 1018.08 286.002 976.336C508.018 934.598 792.319 915.119 998.913 945.728C1205.51 976.336 1353.34 1040.34 1407.9 1020.86C1461.82 1001.57 1433.34 902.737 1425.2 872.073C1407.3 804.678 1333.04 747.607 1334.32 679.323C1335.11 634.801 1395.07 614.46 1399.49 569.104C1403.51 527.95 1371.76 490.858 1336.49 460.361C1320.62 446.642 1295.86 434.343 1283.55 419.039C1282.43 418.009 1281.49 416.674 1280.44 415.283Z" fill="#F8F0F9"/>
<path d="M114.594 350.005L443.032 514.987L431.45 829.526" stroke="#263238" stroke-linecap="round" stroke-linejoin="round"/>
<path d="M371.074 527.586L345.365 841.718" stroke="#263238" stroke-linecap="round" stroke-linejoin="round"/>
<path d="M374.489 485.716L372.553 509.54" stroke="#263238" stroke-linecap="round" stroke-linejoin="round"/>
<path d="M246.594 666.021L213.746 854.011" stroke="#263238" stroke-linecap="round" stroke-linejoin="round"/>
<path d="M286.506 435.83L249.557 649.044" stroke="#263238" stroke-linecap="round" stroke-linejoin="round"/>
<path d="M155.95 425.726L30.5215 872.006" stroke="#263238" stroke-linecap="round" stroke-linejoin="round"/>
<path d="M169.125 378.766L158.568 416.257" stroke="#263238" stroke-linecap="round" stroke-linejoin="round"/>
<path d="M86.457 386.733L140.342 409.054" stroke="#263238" stroke-linecap="round" stroke-linejoin="round"/>
<path d="M261.023 459.017L177.252 424.326" stroke="#263238" stroke-linecap="round" stroke-linejoin="round"/>
<path d="M356.49 498.57L297.326 474.059" stroke="#263238" stroke-linecap="round" stroke-linejoin="round"/>
<path d="M432.058 529.851L383.451 509.719" stroke="#263238" stroke-linecap="round" stroke-linejoin="round"/>
<path d="M134.722 424.809L65.7988 397.703" stroke="#263238" stroke-linecap="round" stroke-linejoin="round"/>
<path d="M257.682 473.143L173.342 439.979" stroke="#263238" stroke-linecap="round" stroke-linejoin="round"/>
<path d="M358.084 512.62L299.262 489.483" stroke="#263238" stroke-linecap="round" stroke-linejoin="round"/>
<path d="M428.758 540.414L381.252 521.732" stroke="#263238" stroke-linecap="round" stroke-linejoin="round"/>
<path d="M128.762 447.894L77.9141 430.205" stroke="#263238" stroke-linecap="round" stroke-linejoin="round"/>
<path d="M253.807 491.393L172.238 463.013" stroke="#263238" stroke-linecap="round" stroke-linejoin="round"/>
<path d="M358.388 527.764L295.312 505.824" stroke="#263238" stroke-linecap="round" stroke-linejoin="round"/>
<path d="M428.452 552.147L379.959 535.272" stroke="#263238" stroke-linecap="round" stroke-linejoin="round"/>
<path d="M121.011 469.198L84.4043 458.203" stroke="#263238" stroke-linecap="round" stroke-linejoin="round"/>
<path d="M253.053 508.954L162.902 481.822" stroke="#263238" stroke-linecap="round" stroke-linejoin="round"/>
<path d="M354.63 539.523L292.125 520.714" stroke="#263238" stroke-linecap="round" stroke-linejoin="round"/>
<path d="M428.49 561.743L380.832 547.413" stroke="#263238" stroke-linecap="round" stroke-linejoin="round"/>
<path d="M31.2801 798.296L-71.3262 799.365" stroke="#263238" stroke-linecap="round" stroke-linejoin="round"/>
<path d="M201.749 796.515L76.9277 797.813" stroke="#263238" stroke-linecap="round" stroke-linejoin="round"/>
<path d="M335.758 795.089L242.797 796.081" stroke="#263238" stroke-linecap="round" stroke-linejoin="round"/>
<path d="M420.971 794.198L365.795 794.784" stroke="#263238" stroke-linecap="round" stroke-linejoin="round"/>
<path d="M21.4818 818.251L-65.3652 820.949" stroke="#263238" stroke-linecap="round" stroke-linejoin="round"/>
<path d="M197.34 812.779L71 816.698" stroke="#263238" stroke-linecap="round" stroke-linejoin="round"/>
<path d="M333.519 808.528L243.406 811.353" stroke="#263238" stroke-linecap="round" stroke-linejoin="round"/>
<path d="M419.112 805.881L363.783 807.612" stroke="#263238" stroke-linecap="round" stroke-linejoin="round"/>
<path d="M13.3559 841.641L-55.1875 845.866" stroke="#263238" stroke-linecap="round" stroke-linejoin="round"/>
<path d="M194.796 830.493L62.5703 838.638" stroke="#263238" stroke-linecap="round" stroke-linejoin="round"/>
<path d="M331.505 822.094L242 827.591" stroke="#263238" stroke-linecap="round" stroke-linejoin="round"/>
<path d="M420.514 816.622L362.869 820.159" stroke="#263238" stroke-linecap="round" stroke-linejoin="round"/>
<path d="M6.86132 862.868L-49.2266 867.45" stroke="#263238" stroke-linecap="round" stroke-linejoin="round"/>
<path d="M188.491 848.081L54.4043 859" stroke="#263238" stroke-linecap="round" stroke-linejoin="round"/>
<path d="M329.341 836.602L236.57 844.161" stroke="#263238" stroke-linecap="round" stroke-linejoin="round"/>
<path d="M418.464 829.348L365.756 833.649" stroke="#263238" stroke-linecap="round" stroke-linejoin="round"/>
<path d="M230.342 527.789L255.063 534.483L248.456 582.614L220.127 577.803L230.342 527.789Z" stroke="#263238" stroke-linecap="round" stroke-linejoin="round"/>
<path d="M328.201 596.205L333.631 555.685L352.163 560.699L348.859 599.718L328.201 596.205Z" stroke="#263238" stroke-linecap="round" stroke-linejoin="round"/>
<path d="M77.4941 486.506L115.164 496.687L99.9748 557.365L61.5449 550.824L77.4941 486.506Z" stroke="#263238" stroke-linecap="round" stroke-linejoin="round"/>
<path d="M408.781 575.996L426.971 580.908L426.553 612.927L408.705 609.898L408.781 575.996Z" stroke="#263238" stroke-linecap="round" stroke-linejoin="round"/>
<path d="M1327.34 350.005L998.902 514.987L1010.48 829.526" stroke="#263238" stroke-linecap="round" stroke-linejoin="round"/>
<path d="M1070.86 527.586L1096.57 841.718" stroke="#263238" stroke-linecap="round" stroke-linejoin="round"/>
<path d="M1067.45 485.716L1069.38 509.54" stroke="#263238" stroke-linecap="round" stroke-linejoin="round"/>
<path d="M1195.34 666.021L1228.19 854.011" stroke="#263238" stroke-linecap="round" stroke-linejoin="round"/>
<path d="M1155.43 435.83L1192.38 649.044" stroke="#263238" stroke-linecap="round" stroke-linejoin="round"/>
<path d="M1285.98 425.725L1411.41 872.006" stroke="#263238" stroke-linecap="round" stroke-linejoin="round"/>
<path d="M1272.81 378.766L1283.36 416.257" stroke="#263238" stroke-linecap="round" stroke-linejoin="round"/>
<path d="M1301.59 409.054L1355.48 386.733" stroke="#263238" stroke-linecap="round" stroke-linejoin="round"/>
<path d="M1180.91 459.018L1264.68 424.326" stroke="#263238" stroke-linecap="round" stroke-linejoin="round"/>
<path d="M1085.44 498.57L1144.61 474.059" stroke="#263238" stroke-linecap="round" stroke-linejoin="round"/>
<path d="M1009.88 529.851L1058.48 509.719" stroke="#263238" stroke-linecap="round" stroke-linejoin="round"/>
<path d="M1307.21 424.809L1376.14 397.703" stroke="#263238" stroke-linecap="round" stroke-linejoin="round"/>
<path d="M1184.25 473.143L1268.59 439.979" stroke="#263238" stroke-linecap="round" stroke-linejoin="round"/>
<path d="M1083.85 512.62L1142.67 489.483" stroke="#263238" stroke-linecap="round" stroke-linejoin="round"/>
<path d="M1013.18 540.414L1060.69 521.732" stroke="#263238" stroke-linecap="round" stroke-linejoin="round"/>
<path d="M1313.18 447.894L1364.02 430.205" stroke="#263238" stroke-linecap="round" stroke-linejoin="round"/>
<path d="M1188.12 491.392L1269.69 463.013" stroke="#263238" stroke-linecap="round" stroke-linejoin="round"/>
<path d="M1083.54 527.764L1146.62 505.824" stroke="#263238" stroke-linecap="round" stroke-linejoin="round"/>
<path d="M1013.48 552.147L1061.98 535.272" stroke="#263238" stroke-linecap="round" stroke-linejoin="round"/>
<path d="M1320.92 469.198L1357.53 458.203" stroke="#263238" stroke-linecap="round" stroke-linejoin="round"/>
<path d="M1188.88 508.954L1279.04 481.822" stroke="#263238" stroke-linecap="round" stroke-linejoin="round"/>
<path d="M1087.31 539.523L1149.81 520.714" stroke="#263238" stroke-linecap="round" stroke-linejoin="round"/>
<path d="M1013.45 561.743L1061.1 547.413" stroke="#263238" stroke-linecap="round" stroke-linejoin="round"/>
<path d="M1410.65 798.296L1513.26 799.365" stroke="#263238" stroke-linecap="round" stroke-linejoin="round"/>
<path d="M1240.19 796.515L1365.01 797.813" stroke="#263238" stroke-linecap="round" stroke-linejoin="round"/>
<path d="M1106.18 795.089L1199.14 796.081" stroke="#263238" stroke-linecap="round" stroke-linejoin="round"/>
<path d="M1020.96 794.198L1076.14 794.784" stroke="#263238" stroke-linecap="round" stroke-linejoin="round"/>
<path d="M1420.45 818.251L1507.3 820.949" stroke="#263238" stroke-linecap="round" stroke-linejoin="round"/>
<path d="M1244.6 812.778L1370.94 816.698" stroke="#263238" stroke-linecap="round" stroke-linejoin="round"/>
<path d="M1108.42 808.528L1198.53 811.353" stroke="#263238" stroke-linecap="round" stroke-linejoin="round"/>
<path d="M1022.82 805.881L1078.15 807.612" stroke="#263238" stroke-linecap="round" stroke-linejoin="round"/>
<path d="M1428.58 841.641L1497.12 845.866" stroke="#263238" stroke-linecap="round" stroke-linejoin="round"/>
<path d="M1247.14 830.493L1379.36 838.638" stroke="#263238" stroke-linecap="round" stroke-linejoin="round"/>
<path d="M1110.43 822.094L1199.94 827.592" stroke="#263238" stroke-linecap="round" stroke-linejoin="round"/>
<path d="M1021.42 816.621L1079.06 820.159" stroke="#263238" stroke-linecap="round" stroke-linejoin="round"/>
<path d="M1435.07 862.868L1491.16 867.45" stroke="#263238" stroke-linecap="round" stroke-linejoin="round"/>
<path d="M1253.44 848.081L1387.53 859" stroke="#263238" stroke-linecap="round" stroke-linejoin="round"/>
<path d="M1112.6 836.602L1205.37 844.161" stroke="#263238" stroke-linecap="round" stroke-linejoin="round"/>
<path d="M1023.47 829.348L1076.18 833.649" stroke="#263238" stroke-linecap="round" stroke-linejoin="round"/>
<path d="M1211.59 527.789L1186.87 534.483L1193.48 582.613L1221.81 577.803L1211.59 527.789Z" stroke="#263238" stroke-linecap="round" stroke-linejoin="round"/>
<path d="M1113.73 596.205L1108.3 555.685L1089.77 560.699L1093.08 599.717L1113.73 596.205Z" stroke="#263238" stroke-linecap="round" stroke-linejoin="round"/>
<path d="M1364.44 486.506L1326.77 496.687L1341.96 557.365L1380.39 550.824L1364.44 486.506Z" stroke="#263238" stroke-linecap="round" stroke-linejoin="round"/>
<path d="M1033.15 575.996L1014.96 580.909L1015.38 612.928L1033.23 609.899L1033.15 575.996Z" stroke="#263238" stroke-linecap="round" stroke-linejoin="round"/>
<path d="M128.568 885.725C218.036 874.678 338.414 859.814 429.932 848.412" stroke="#263238" stroke-linecap="round" stroke-linejoin="round"/>
<path d="M3.67383 900.996L96.9005 889.517" stroke="#263238" stroke-linecap="round" stroke-linejoin="round"/>
<path d="M1369.64 893.361C1274.1 878.089 1118.33 853.783 1010.41 840.344" stroke="#263238" stroke-linecap="round" stroke-linejoin="round"/>
<path d="M1468.56 907.156C1468.56 907.156 1446.27 903.542 1410.54 897.688" stroke="#263238" stroke-linecap="round" stroke-linejoin="round"/>
<path d="M369.48 479.608L390.631 319.513L233.418 202" stroke="#263238" stroke-linecap="round" stroke-linejoin="round"/>
<path d="M1037.6 495.821L1025.52 321.549L1215.96 202" stroke="#263238" stroke-linecap="round" stroke-linejoin="round"/>
</g>
<defs>
<clipPath id="clip0_2981_93917">
<rect width="1440" height="1024" fill="white"/>
</clipPath>
</defs>
</svg>
